<svg width="70" height="71" viewBox="0 0 70 71" fill="none" xmlns="http://www.w3.org/2000/svg">
<path d="M31.0315 21.4112H40.0269M28.9607 26.6398L34.8167 11.9166H36.1749L41.9863 26.6398M55.7243 58.9959C54.7891 59.5866 53.6536 59.8928 52.4512 59.8928C48.9778 59.8928 46.1722 57.0488 46.1722 53.5266C46.1722 50.0044 48.9778 47.1167 52.4512 47.1167C53.7872 47.1167 54.9896 47.5323 56.0138 48.1886M35.4846 70H1.48462V35.4781H35.4846V70ZM69.4846 35.4781H35.4846V70H69.4846V35.4781ZM52.4735 1H18.4735V35.4781H52.4735V1ZM14.3098 53.4829H21.1231C22.8599 53.4829 24.2626 54.883 24.2626 56.6332C24.2626 58.3833 22.8599 59.8053 21.1231 59.8053H14.3098V47.1167H21.1231C22.8599 47.1167 24.2626 48.5168 24.2626 50.2888C24.2626 52.0609 22.8599 53.4829 21.1231 53.4829H14.3098V53.4829Z" stroke="#FF7A00" stroke-miterlimit="10"/>
</svg>
