<svg width="131" height="61" viewBox="0 0 131 61" fill="none" xmlns="http://www.w3.org/2000/svg">
<path d="M4.80897 51.6792H0.506979M9.69348 59.9778V55.6954M121.231 55.6954V59.9778M126.115 50.8582H130.462M121.253 5.28242V1M126.138 10.1196H130.485M4.8314 10.1196H0.484619M9.69348 5.28242V1M9.69348 55.7176C7.00475 55.7176 4.80897 53.543 4.80897 50.8804V10.1418C4.80897 7.47912 7.00475 5.30463 9.69348 5.30463H121.231C123.92 5.30463 126.115 7.47912 126.115 10.1418V50.8804C126.115 53.543 123.92 55.7176 121.231 55.7176H9.69348ZM130.462 50.8804C130.462 55.9172 126.34 60 121.253 60H9.71591C4.60733 60 0.506979 55.9172 0.506979 50.8804V10.1418C0.506979 5.10492 4.62973 1.02221 9.71591 1.02221H121.253C126.34 1.02221 130.462 5.10492 130.462 10.1418V50.8804Z" stroke="#FF7A00" stroke-miterlimit="10"/>
</svg>
