<svg width="88" height="71" viewBox="0 0 88 71" fill="none" xmlns="http://www.w3.org/2000/svg">
<path d="M43.4713 70H71.8493C78.1555 70 83.2627 64.8906 83.2627 58.5815C83.2627 56.0046 82.3745 53.6497 80.9312 51.717C84.3951 49.7621 86.7489 46.0744 86.7489 41.8091C86.7489 37.9437 84.8171 34.5448 81.886 32.4787C83.2849 30.5905 84.1509 28.2579 84.1509 25.7254C84.1509 19.7495 79.5545 14.9066 73.7368 14.3957C73.8478 13.7515 73.9366 13.1072 73.9366 12.4408C73.9366 6.13167 68.8295 1.02224 62.5232 1.02224C58.5041 1.02224 54.9735 3.08819 52.9529 6.24273C54.9957 3.1104 58.5263 1.02224 62.5232 1.02224C68.8295 1.02224 73.9366 6.13167 73.9366 12.4408C73.9366 13.1072 73.8478 13.7515 73.7368 14.3957C79.5545 14.9066 84.1509 19.7495 84.1509 25.7254C84.1509 28.2579 83.2849 30.5905 81.886 32.4787C84.8171 34.5448 86.7489 37.9437 86.7489 41.8091C86.7489 46.0744 84.3951 49.7399 80.9312 51.717C82.3745 53.6275 83.2627 55.9824 83.2627 58.5815C83.2627 64.8906 78.1555 70 71.8493 70H43.4713ZM52.9307 70C59.2369 70 64.344 64.8906 64.344 58.5815C64.344 56.0046 63.4559 53.6497 62.0125 51.717C65.4765 49.7621 67.8302 46.0744 67.8302 41.8091C67.8302 37.9437 65.8984 34.5448 62.9673 32.4787C64.3662 30.5905 65.2322 28.2579 65.2322 25.7254C65.2322 19.7495 60.6358 14.9066 54.8181 14.3957C54.9291 13.7515 55.0179 13.1072 55.0179 12.4408C55.0179 6.13167 49.9108 1.02224 43.6046 1.02224C49.9108 1.02224 55.0179 6.13167 55.0179 12.4408C55.0179 13.1072 54.9291 13.7515 54.8181 14.3957C60.6358 14.9066 65.2322 19.7495 65.2322 25.7254C65.2322 28.2579 64.3662 30.5905 62.9673 32.4787C65.8984 34.5448 67.8302 37.9437 67.8302 41.8091C67.8302 46.0744 65.4765 49.7399 62.0125 51.717C63.4559 53.6275 64.344 55.9824 64.344 58.5815C64.344 64.8906 59.2369 70 52.9307 70ZM34.5671 6.22056C32.5243 3.08823 28.9937 1 24.9746 1C18.6683 1 13.5612 6.10944 13.5612 12.4185C13.5612 13.085 13.65 13.7292 13.761 14.3735C7.94332 14.8844 3.34688 19.7273 3.34688 25.7032C3.34688 28.2357 4.21289 30.5683 5.6118 32.4566C2.68074 34.5226 0.748901 37.9215 0.748901 41.7869C0.748901 46.0522 3.10265 49.7177 6.56664 51.6949C5.12331 53.6054 4.2351 55.9601 4.2351 58.5593C4.2351 64.8684 9.34225 69.9779 15.6485 69.9779C9.34225 69.9779 4.2351 64.8684 4.2351 58.5593C4.2351 55.9824 5.12331 53.6276 6.56664 51.6949C3.10265 49.7399 0.748901 46.0522 0.748901 41.7869C0.748901 37.9215 2.68074 34.5226 5.6118 32.4566C4.21289 30.5683 3.34688 28.2357 3.34688 25.7032C3.34688 19.7273 7.94332 14.8844 13.761 14.3735C13.65 13.7292 13.5612 13.085 13.5612 12.4185C13.5612 6.10944 18.6683 1 24.9746 1C28.9937 1 32.5243 3.06602 34.5671 6.22056V6.22056ZM43.9154 1C37.6092 1 32.5021 6.10944 32.5021 12.4185C32.5021 13.085 32.5909 13.7292 32.7019 14.3735C26.8842 14.8844 22.2878 19.7273 22.2878 25.7032C22.2878 28.2357 23.1538 30.5683 24.5527 32.4566C21.6216 34.5226 19.6898 37.9215 19.6898 41.7869C19.6898 46.0522 22.0435 49.7177 25.5075 51.6949C24.0642 53.6054 23.176 55.9601 23.176 58.5593C23.176 64.8684 28.2831 69.9779 34.5893 69.9779C28.2831 69.9779 23.176 64.8684 23.176 58.5593C23.176 55.9824 24.0642 53.6276 25.5075 51.6949C22.0435 49.7399 19.6898 46.0522 19.6898 41.7869C19.6898 37.9215 21.6216 34.5226 24.5527 32.4566C23.1538 30.5683 22.2878 28.2357 22.2878 25.7032C22.2878 19.7273 26.8842 14.8844 32.7019 14.3735C32.5909 13.7292 32.5021 13.085 32.5021 12.4185C32.5021 6.10944 37.6314 1 43.9154 1V1ZM54.0187 36.3664L44.2263 45.9412L54.0187 36.3664ZM14.4272 50.7174L23.3758 59.4701L14.4272 50.7174V50.7174ZM34.2119 50.7174L44.0043 60.292L34.2119 50.7174V50.7174ZM75.1135 35.0557L66.8754 43.0976L75.1135 35.0557ZM14.3606 25.2144L23.3314 33.9894L14.3606 25.2144ZM44.0043 35.2779L34.2119 25.7032L44.0043 35.2779Z" stroke="#FF7A00" stroke-miterlimit="10"/>
</svg>
