<svg width="71" height="70" viewBox="0 0 71 70" fill="none" xmlns="http://www.w3.org/2000/svg">
<path d="M35.4776 69C16.488 69 1 53.7636 1 35.0111C1 16.2585 16.488 1 35.4776 1C54.4671 1 70 16.2585 70 34.9889C70 53.7193 54.512 68.9779 35.4776 68.9779V69ZM62.054 35.0111C62.054 20.5707 50.1575 8.80618 35.4776 8.80618C20.7977 8.80618 8.92355 20.5707 8.92355 35.0111C8.92355 49.4514 20.8426 61.1717 35.5 61.1717C50.1575 61.1717 62.0764 49.4735 62.0764 35.0111H62.054ZM54.1529 35.0111C54.1529 24.8608 45.8029 16.6345 35.4776 16.6345C25.1522 16.6345 16.8022 24.8608 16.8022 35.0111C16.8022 45.1613 25.1747 53.4319 35.4776 53.4319C45.7804 53.4319 54.1529 45.1613 54.1529 35.0111ZM46.2518 35.0111C46.2518 29.173 41.4258 24.3964 35.4776 24.3964C29.5293 24.3964 24.7258 29.173 24.7258 35.0111C24.7258 40.8491 29.5517 45.5815 35.4776 45.5815C41.4034 45.5815 46.2518 40.827 46.2518 35.0111ZM35.4776 32.2026C33.9288 32.2026 32.6493 33.4631 32.6493 35.0111C32.6493 36.559 33.9063 37.8195 35.4776 37.8195C37.0488 37.8195 38.3282 36.5369 38.3282 35.0111C38.3282 33.4852 37.0712 32.2026 35.4776 32.2026Z" stroke="#FF7A00" stroke-miterlimit="10"/>
</svg>
