<svg width="90" height="63" viewBox="0 0 90 63" fill="none" xmlns="http://www.w3.org/2000/svg">
<path d="M85.5497 59.5423C85.5497 58.1916 84.3491 57.0846 82.8817 57.0846H76.9899C75.5225 57.0846 74.3218 58.1916 74.3218 59.5423C74.3218 60.8929 75.5225 62 76.9899 62H82.8817C84.3491 62 85.5497 60.8929 85.5497 59.5423ZM85.5497 59.5423C85.5497 60.8929 84.3491 62 82.8817 62H76.9899C75.5225 62 74.3218 60.8929 74.3218 59.5423C74.3218 58.1916 75.5225 57.0846 76.9899 57.0846H82.8817C84.3491 57.0846 85.5497 58.1916 85.5497 59.5423ZM14.4027 59.5423C14.4027 58.1916 13.2021 57.0846 11.7347 57.0846H5.8428C4.37539 57.0846 3.17476 58.1916 3.17476 59.5423C3.17476 60.8929 4.37539 62 5.8428 62H11.7347C13.2021 62 14.4027 60.8929 14.4027 59.5423ZM14.4027 59.5423C14.4027 60.8929 13.2021 62 11.7347 62H5.8428C4.37539 62 3.17476 60.8929 3.17476 59.5423C3.17476 58.1916 4.37539 57.0846 5.8428 57.0846H11.7347C13.2021 57.0846 14.4027 58.1916 14.4027 59.5423ZM53.3779 24.7801C53.3779 24.7801 52.0217 23.2302 52.0217 21.5917C52.0217 21.0603 52.1551 20.5288 52.5331 20.0196C54.0672 17.9604 61.3153 11.6722 61.3153 11.6722C61.3153 11.6722 62.5826 10.5652 64.1834 10.5652C62.5826 10.5652 61.3153 11.6722 61.3153 11.6722C61.3153 11.6722 54.0672 17.9604 52.5331 20.0196C52.1551 20.5288 52.0217 21.0603 52.0217 21.5917C52.0217 23.2302 53.3779 24.7801 53.3779 24.7801ZM75.0111 24.7801C75.0111 24.7801 76.3673 23.2302 76.3673 21.5917C76.3673 21.0603 76.2339 20.5288 75.8559 20.0196C74.3218 17.9604 67.0737 11.6722 67.0737 11.6722C67.0737 11.6722 65.8287 10.5652 64.2056 10.5652C65.8064 10.5652 67.0737 11.6722 67.0737 11.6722C67.0737 11.6722 74.3218 17.9604 75.8559 20.0196C76.2339 20.5288 76.3673 21.0603 76.3673 21.5917C76.3673 23.2302 75.0111 24.7801 75.0111 24.7801ZM12.4684 24.7801C12.4684 24.7801 11.1121 23.2302 11.1121 21.5917C11.1121 21.0603 11.2455 20.5288 11.6235 20.0196C13.1576 17.9604 20.4057 11.6722 20.4057 11.6722C20.4057 11.6722 21.6508 10.5652 23.2516 10.5652C21.6508 10.5652 20.4057 11.6722 20.4057 11.6722C20.4057 11.6722 13.1576 17.9604 11.6235 20.0196C11.2455 20.5288 11.1121 21.0603 11.1121 21.5917C11.1121 23.2302 12.4684 24.7801 12.4684 24.7801ZM34.0793 24.7801C34.0793 24.7801 35.4355 23.2301 35.4355 21.6138C35.4355 21.0824 35.3021 20.5289 34.9241 20.0417C33.39 17.9826 26.1419 11.6944 26.1419 11.6944C26.1419 11.6944 24.8969 10.5873 23.296 10.5873C24.8969 10.5873 26.1419 11.6944 26.1419 11.6944C26.1419 11.6944 33.39 17.9826 34.9241 20.0417C35.3021 20.551 35.4355 21.0824 35.4355 21.6138C35.4355 23.2522 34.0793 24.7801 34.0793 24.7801ZM44.0176 24.7801H75.1667C81.0363 24.7801 85.5497 27.2599 85.5497 33.4374C85.5497 27.2599 81.0363 24.7801 75.1667 24.7801H44.0176ZM44.3734 24.7801H13.2243C7.35466 24.7801 2.84127 27.2599 2.84127 33.4374C2.84127 27.2599 7.35466 24.7801 13.2243 24.7801H44.3734ZM88.5957 4.07771C88.5957 2.37281 87.1061 1 85.2385 1H3.95294C2.10757 1 0.595703 2.37281 0.595703 4.07771V44.1096C0.595703 45.8145 2.08533 47.1873 3.95294 47.1873H85.2385C87.0838 47.1873 88.5957 45.8145 88.5957 44.1096C88.5957 45.8145 87.1061 47.1873 85.2385 47.1873H3.95294C2.10757 47.1873 0.595703 45.8145 0.595703 44.1096V4.07771C0.595703 2.37281 2.08533 1 3.95294 1H85.2385C87.0838 1 88.5957 2.37281 88.5957 4.07771ZM88.5957 36.338C88.5957 34.6331 87.1061 33.2603 85.2385 33.2603H3.95294C2.10757 33.2603 0.595703 34.6331 0.595703 36.338V44.2646C0.595703 45.9695 2.08533 47.3644 3.95294 47.3644H85.2385C87.0838 47.3644 88.5957 45.9916 88.5957 44.2646C88.5957 45.9695 87.1061 47.3644 85.2385 47.3644H3.95294C2.10757 47.3644 0.595703 45.9916 0.595703 44.2646V36.338C0.595703 34.6331 2.08533 33.2603 3.95294 33.2603H85.2385C87.0838 33.2603 88.5957 34.6331 88.5957 36.338ZM88.5957 54.0733C88.5957 55.7782 87.1061 57.151 85.2385 57.151H3.95294C2.10757 57.151 0.595703 55.7782 0.595703 54.0733V50.4421C0.595703 48.7372 2.08533 47.3644 3.95294 47.3644H85.2385C87.0838 47.3644 88.5957 48.7372 88.5957 50.4421C88.5957 48.7372 87.1061 47.3644 85.2385 47.3644H3.95294C2.10757 47.3644 0.595703 48.7372 0.595703 50.4421V54.0733C0.595703 55.7782 2.08533 57.151 3.95294 57.151H85.2385C87.0838 57.151 88.5957 55.7782 88.5957 54.0733Z" stroke="#FF7A00" stroke-miterlimit="10"/>
</svg>
