<svg width="72" height="71" viewBox="0 0 72 71" fill="none" xmlns="http://www.w3.org/2000/svg">
<path d="M31.1152 1L20.9424 16.7296L31.1152 1ZM41.0864 1L30.8912 16.7296L41.0864 1ZM51.0576 1L40.8848 16.7296L51.0576 1ZM61.0288 1L50.856 16.7296L61.0288 1ZM71 1L60.8271 16.7296L71 1ZM21.144 1L10.9712 16.7296L21.144 1ZM11.1729 1L1 16.7296L11.1729 1ZM1 1V54.5549C1 63.065 8.03585 70 16.6626 70H55.3374C63.9641 70 71 63.065 71 54.5549V1V54.5549C71 63.065 63.9641 70 55.3374 70H16.6626C8.03585 70 1 63.0869 1 54.5549V1V1ZM26.8803 32.6122V54.9268L46.4866 43.7695L26.8803 32.6122L46.4866 43.7695L26.8803 54.9268V32.6122V32.6122Z" stroke="#FF7A00" stroke-miterlimit="10"/>
</svg>
