<svg width="76" height="91" viewBox="0 0 76 91" fill="none" xmlns="http://www.w3.org/2000/svg">
<path d="M33 29H42" stroke="#FF7A00" stroke-miterlimit="10"/>
<path d="M33 31H42" stroke="#FF7A00" stroke-miterlimit="10"/>
<path d="M33 34H42" stroke="#FF7A00" stroke-miterlimit="10"/>
<path d="M33 37H42" stroke="#FF7A00" stroke-miterlimit="10"/>
<path d="M33 8H12V90H33V8Z" stroke="#FF7A00" stroke-miterlimit="10"/>
<path d="M31 1H14V8H31V1Z" stroke="#FF7A00" stroke-miterlimit="10"/>
<path d="M12 70H33" stroke="#FF7A00" stroke-miterlimit="10"/>
<path d="M12 61H33" stroke="#FF7A00" stroke-miterlimit="10"/>
<path d="M12 52H33" stroke="#FF7A00" stroke-miterlimit="10"/>
<path d="M12 43H33" stroke="#FF7A00" stroke-miterlimit="10"/>
<path d="M12 34H33" stroke="#FF7A00" stroke-miterlimit="10"/>
<path d="M12 25H33" stroke="#FF7A00" stroke-miterlimit="10"/>
<path d="M12 16H33" stroke="#FF7A00" stroke-miterlimit="10"/>
<path d="M19 76H15V80H19V76Z" stroke="#FF7A00" stroke-miterlimit="10"/>
<path d="M25 76H21V80H25V76Z" stroke="#FF7A00" stroke-miterlimit="10"/>
<path d="M30 76H27V80H30V76Z" stroke="#FF7A00" stroke-miterlimit="10"/>
<path d="M64 8H42V90H64V8Z" stroke="#FF7A00" stroke-miterlimit="10"/>
<path d="M62 1H44V8H62V1Z" stroke="#FF7A00" stroke-miterlimit="10"/>
<path d="M42 70H64" stroke="#FF7A00" stroke-miterlimit="10"/>
<path d="M42 61H64" stroke="#FF7A00" stroke-miterlimit="10"/>
<path d="M42 52H64" stroke="#FF7A00" stroke-miterlimit="10"/>
<path d="M42 43H64" stroke="#FF7A00" stroke-miterlimit="10"/>
<path d="M42 34H64" stroke="#FF7A00" stroke-miterlimit="10"/>
<path d="M42 25H64" stroke="#FF7A00" stroke-miterlimit="10"/>
<path d="M42 16H64" stroke="#FF7A00" stroke-miterlimit="10"/>
<path d="M49 76H45V80H49V76Z" stroke="#FF7A00" stroke-miterlimit="10"/>
<path d="M55 76H51V80H55V76Z" stroke="#FF7A00" stroke-miterlimit="10"/>
<path d="M61 76H57V80H61V76Z" stroke="#FF7A00" stroke-miterlimit="10"/>
<path d="M0 90H76" stroke="#FF7A00" stroke-miterlimit="10"/>
</svg>
