<svg width="91" height="77" viewBox="0 0 91 77" fill="none" xmlns="http://www.w3.org/2000/svg">
<path d="M0.549316 60.0769C2.96183 60.0769 4.05636 60.7173 5.37431 61.4461C6.87096 62.3074 8.52398 63.2571 11.8077 63.2571C15.0914 63.2571 16.6997 62.3074 18.2187 61.4461C19.5366 60.7394 20.6536 60.0769 23.0437 60.0769C25.4339 60.0769 26.5284 60.7173 27.8687 61.4461C29.3654 62.3074 31.0408 63.2571 34.2798 63.2571C37.5188 63.2571 39.2164 62.3074 40.7131 61.4461C42.031 60.7394 43.148 60.0769 45.5605 60.0769C47.973 60.0769 49.0899 60.7173 50.3631 61.4461C51.8821 62.3074 53.5575 63.2571 56.7965 63.2571C60.0355 63.2571 61.7332 62.3074 63.2075 61.4461C64.5254 60.7394 65.6424 60.0769 68.0549 60.0769C70.4674 60.0769 71.5619 60.7173 72.8576 61.4461C74.3319 62.3074 76.0519 63.2571 79.2686 63.2571C82.4852 63.2571 84.2053 62.3074 85.7019 61.4461C87.0422 60.7394 88.1591 60.0769 90.5493 60.0769M11.8077 69.6396C15.0244 69.6396 16.6997 68.6678 18.2187 67.8286C19.5366 67.0557 20.6536 66.4152 23.0437 66.4152C25.4339 66.4152 26.5284 67.0557 27.8687 67.8286C29.3654 68.6458 31.0408 69.6396 34.2798 69.6396C37.5188 69.6396 39.2164 68.6678 40.7131 67.8286C42.031 67.0557 43.148 66.4152 45.5605 66.4152C47.973 66.4152 49.0899 67.0557 50.3631 67.8286C51.8821 68.6458 53.5575 69.6396 56.7965 69.6396C60.0355 69.6396 61.7332 68.6678 63.2075 67.8286C64.5254 67.0557 65.6424 66.4152 68.0549 66.4152C70.4674 66.4152 71.5619 67.0557 72.8576 67.8286C74.3319 68.6458 76.0519 69.6396 79.2686 69.6396M68.0549 72.8198C65.6424 72.8198 64.5254 73.4161 63.2075 74.189C61.7332 75.0504 60.0355 76 56.7965 76C53.5575 76 51.8821 75.0504 50.3631 74.189C49.0675 73.4382 47.906 72.8198 45.5605 72.8198C43.215 72.8198 42.031 73.4161 40.7131 74.189C39.2388 75.0504 37.5411 76 34.2798 76C31.0184 76 29.3654 75.0504 27.8687 74.189C26.5284 73.4382 25.4116 72.8198 23.0437 72.8198M19.8047 60.629V18.6016C19.8047 8.86219 27.7571 1 37.5635 1C39.0378 1 40.4227 1.19876 41.7407 1.50795C42.0087 1.53004 42.2545 1.61838 42.5225 1.68463C42.9916 1.83922 43.4384 1.99382 43.9075 2.14841C50.5642 4.68816 55.3222 11.1148 55.3222 18.6237M37.5635 62.5283V20.3905C37.5635 10.7173 45.5381 2.85512 55.3222 2.85512C65.1062 2.85512 73.0586 10.7173 73.0586 20.3905M19.8047 23.9903H37.5635M19.8047 37.3516H37.5635M19.8047 50.7792H37.5635" stroke="#FF7A00" stroke-miterlimit="10"/>
</svg>
