<svg width="58" height="98" viewBox="0 0 58 98" fill="none" xmlns="http://www.w3.org/2000/svg">
<path d="M48.7248 84.4276V0M41.4623 13.854L17.1271 22.5376L41.4623 31.7294V13.854ZM41.4623 13.854L31.2723 6.84966M48.7248 5.14829L31.2723 6.84966V17.4556M41.4623 21.4991L48.7248 22.1841M29.4846 72.0761C14.0433 72.0761 1.48462 77.6884 1.48462 84.538C1.48462 91.3877 14.0209 97 29.4846 97C44.9483 97 57.4846 91.3877 57.4846 84.538C57.4846 77.6884 44.9483 72.0761 29.4846 72.0761ZM40.8366 81.1132C36.479 81.1132 32.9706 82.682 32.9706 84.6264C32.9706 86.5708 36.5014 88.1396 40.8366 88.1396C45.1718 88.1396 48.7248 86.5266 48.7248 84.6264C48.7248 82.7262 45.1718 81.1132 40.8366 81.1132Z" stroke="#FF7A00" stroke-miterlimit="10"/>
</svg>
