<svg width="104" height="75" viewBox="0 0 104 75" fill="none" xmlns="http://www.w3.org/2000/svg">
<path d="M74.5849 64.9055V70.9167C74.5849 72.6025 75.9674 73.9778 77.6622 73.9778H78.1082C79.8029 73.9778 81.1854 72.6025 81.1854 70.9167V62.3102M15.8042 63.7521V70.9389C15.8042 72.6247 17.1867 74 18.8815 74H19.3275C21.0222 74 22.4048 72.6247 22.4048 70.9389V65.7705M18.6808 7.2996H13.7081M16.2056 4.81526V9.80614M5.47969 7.3218H0.484619M2.98219 4.83743V9.82834M71.4184 58.5615C78.688 57.2084 84.954 52.1288 87.6299 45.0528L91.0417 35.2707M67.5606 65.8593C79.7137 65.8593 90.0828 58.2288 94.1412 47.515L100.541 29.1929M7.17438 29.1929V49.1343C7.17438 58.384 14.6669 65.8815 23.9211 65.8815H67.5606M9.15904 23.0486V3.88363C9.15904 2.28655 10.4524 1 12.0357 1H31.5028C33.0861 1 34.3794 2.28655 34.3794 3.88363V6.43451M103.485 23.0486H3.51735V29.1929H103.485V23.0486Z" stroke="#FF7A00" stroke-miterlimit="10"/>
</svg>
