<svg width="53" height="39" viewBox="0 0 53 39" fill="none" xmlns="http://www.w3.org/2000/svg">
<path d="M26.3503 15.3217H8.30773C4.91548 15.3217 2.29935 16.8599 2.29935 20.7141M26.141 15.3217H44.1836C47.5759 15.3217 50.192 16.8599 50.192 20.7141M20.3768 15.3217C20.3768 15.3217 21.7459 13.6366 20.8564 12.3576C19.967 11.0787 15.7724 7.15532 15.7724 7.15532C15.7724 7.15532 15.0486 6.47263 14.1155 6.47263M7.85427 15.3131C7.85427 15.3131 6.47644 13.628 7.37464 12.349C8.26413 11.07 12.4587 7.14668 12.4587 7.14668C12.4587 7.14668 13.1825 6.46398 14.1155 6.46398M44.0703 15.3044C44.0703 15.3044 45.4481 13.6193 44.5586 12.3403C43.6691 11.0614 39.4659 7.13804 39.4659 7.13804C39.4659 7.13804 38.7421 6.45534 37.809 6.45534M31.5477 15.2958C31.5477 15.2958 30.1699 13.6107 31.0594 12.3317C31.9488 11.0527 36.1521 7.1294 36.1521 7.1294C36.1521 7.1294 36.8759 6.4467 37.809 6.4467M51.9535 33.5557C51.9535 34.6187 51.0815 35.4742 50.0176 35.4742H2.93594C1.86332 35.4742 1 34.61 1 33.5557V31.3002C1 30.2373 1.86332 29.3818 2.93594 29.3818H50.0176C51.0902 29.3818 51.9535 30.2373 51.9535 31.3002V33.5557ZM51.9535 22.5203C51.9535 21.4573 51.0815 20.6018 50.0176 20.6018H2.93594C1.86332 20.6018 1 21.4573 1 22.5203V27.4547C1 28.5176 1.86332 29.3731 2.93594 29.3731H50.0176C51.0902 29.3731 51.9535 28.5176 51.9535 27.4547V22.5203V22.5203ZM51.9535 2.43695C51.9535 1.37402 51.0815 0.518494 50.0176 0.518494H2.93594C1.86332 0.518494 1 1.37402 1 2.43695V27.3596C1 28.4225 1.86332 29.2781 2.93594 29.2781H50.0176C51.0902 29.2781 51.9535 28.4225 51.9535 27.3596V2.43695V2.43695ZM8.99665 36.9519C8.99665 36.105 8.29901 35.4223 7.45313 35.4223H4.03471C3.18011 35.4223 2.4912 36.105 2.4912 36.9519C2.4912 37.7988 3.18011 38.4815 4.03471 38.4815H7.45313C8.30773 38.4815 8.99665 37.7988 8.99665 36.9519ZM50.2007 36.9519C50.2007 36.105 49.5118 35.4223 48.6572 35.4223H45.2388C44.3842 35.4223 43.6953 36.105 43.6953 36.9519C43.6953 37.7988 44.3929 38.4815 45.2388 38.4815H48.6572C49.5118 38.4815 50.2007 37.7988 50.2007 36.9519Z" stroke="#FF7A00" stroke-miterlimit="10"/>
</svg>
