<svg width="100" height="77" viewBox="0 0 100 77" fill="none" xmlns="http://www.w3.org/2000/svg">
<g clip-path="url(#clip0_352_7)">
<path d="M47.02 37.68H52.77" stroke="white" stroke-width="0.5" stroke-miterlimit="10"/>
<path d="M47.02 39.26H52.77" stroke="white" stroke-width="0.5" stroke-miterlimit="10"/>
<path d="M47.02 41.21H52.77" stroke="white" stroke-width="0.5" stroke-miterlimit="10"/>
<path d="M47.02 42.79H52.77" stroke="white" stroke-width="0.5" stroke-miterlimit="10"/>
<path d="M47.01 24.84H33.63V76.13H47.01V24.84Z" stroke="white" stroke-width="0.5" stroke-miterlimit="10"/>
<path d="M45.77 20.25H34.89V24.84H45.77V20.25Z" stroke="white" stroke-width="0.5" stroke-miterlimit="10"/>
<path d="M33.63 63.44H47.02" stroke="white" stroke-width="0.5" stroke-miterlimit="10"/>
<path d="M33.63 57.77H47.02" stroke="white" stroke-width="0.5" stroke-miterlimit="10"/>
<path d="M33.63 52.1H47.02" stroke="white" stroke-width="0.5" stroke-miterlimit="10"/>
<path d="M33.63 46.43H47.02" stroke="white" stroke-width="0.5" stroke-miterlimit="10"/>
<path d="M33.63 40.77H47.02" stroke="white" stroke-width="0.5" stroke-miterlimit="10"/>
<path d="M33.63 35.1H47.02" stroke="white" stroke-width="0.5" stroke-miterlimit="10"/>
<path d="M33.63 29.43H47.02" stroke="white" stroke-width="0.5" stroke-miterlimit="10"/>
<path d="M37.87 67.71H35.47V70.11H37.87V67.71Z" stroke="white" stroke-width="0.5" stroke-miterlimit="10"/>
<path d="M41.53 67.71H39.13V70.11H41.53V67.71Z" stroke="white" stroke-width="0.5" stroke-miterlimit="10"/>
<path d="M45.18 67.71H42.78V70.11H45.18V67.71Z" stroke="white" stroke-width="0.5" stroke-miterlimit="10"/>
<path d="M66.15 24.84H52.77V76.13H66.15V24.84Z" stroke="white" stroke-width="0.5" stroke-miterlimit="10"/>
<path d="M64.9 20.25H54.02V24.84H64.9V20.25Z" stroke="white" stroke-width="0.5" stroke-miterlimit="10"/>
<path d="M52.77 63.44H66.15" stroke="white" stroke-width="0.5" stroke-miterlimit="10"/>
<path d="M52.77 57.77H66.15" stroke="white" stroke-width="0.5" stroke-miterlimit="10"/>
<path d="M52.77 52.1H66.15" stroke="white" stroke-width="0.5" stroke-miterlimit="10"/>
<path d="M52.77 46.43H66.15" stroke="white" stroke-width="0.5" stroke-miterlimit="10"/>
<path d="M52.77 40.77H66.15" stroke="white" stroke-width="0.5" stroke-miterlimit="10"/>
<path d="M52.77 35.1H66.15" stroke="white" stroke-width="0.5" stroke-miterlimit="10"/>
<path d="M52.77 29.43H66.15" stroke="white" stroke-width="0.5" stroke-miterlimit="10"/>
<path d="M57.01 67.71H54.61V70.11H57.01V67.71Z" stroke="white" stroke-width="0.5" stroke-miterlimit="10"/>
<path d="M60.6601 67.71H58.2601V70.11H60.6601V67.71Z" stroke="white" stroke-width="0.5" stroke-miterlimit="10"/>
<path d="M64.31 67.71H61.91V70.11H64.31V67.71Z" stroke="white" stroke-width="0.5" stroke-miterlimit="10"/>
<path d="M26 76.13H73.79" stroke="white" stroke-width="0.5" stroke-miterlimit="10"/>
</g>
<mask id="mask0_352_7" style="mask-type:alpha" maskUnits="userSpaceOnUse" x="0" y="0" width="100" height="22">
<rect width="100" height="22" fill="#D9D9D9"/>
</mask>
<g mask="url(#mask0_352_7)">
<path d="M27.0266 13.05L25.9916 15.66H18.6266V15.165C19.1366 15.165 19.5066 15.09 19.7366 14.94C19.9066 14.82 19.9916 14.61 19.9916 14.31V6.525C19.9916 6.195 19.9116 5.97 19.7516 5.85C19.5616 5.72 19.1866 5.655 18.6266 5.655V5.175H22.4216V5.655C21.7616 5.655 21.3516 5.72 21.1916 5.85C21.0316 5.98 20.9516 6.205 20.9516 6.525V14.325C20.9516 14.625 21.0166 14.835 21.1466 14.955C21.2966 15.075 21.5466 15.135 21.8966 15.135H23.5616C24.2416 15.135 24.8116 14.95 25.2716 14.58C25.7516 14.24 26.2116 13.665 26.6516 12.855L27.0266 13.05ZM34.3955 12.24C34.3955 13.36 34.0755 14.255 33.4355 14.925C32.8255 15.595 32.0455 15.93 31.0955 15.93C30.1355 15.93 29.3505 15.595 28.7405 14.925C28.1005 14.255 27.7805 13.36 27.7805 12.24C27.7805 11.12 28.1005 10.225 28.7405 9.555C29.3505 8.885 30.1355 8.55 31.0955 8.55C32.0455 8.55 32.8255 8.885 33.4355 9.555C34.0755 10.225 34.3955 11.12 34.3955 12.24ZM33.3755 12.24C33.3755 11.32 33.1555 10.565 32.7155 9.975C32.3055 9.385 31.7655 9.09 31.0955 9.09C30.4355 9.09 29.8855 9.385 29.4455 9.975C29.0155 10.565 28.8005 11.32 28.8005 12.24C28.8005 13.15 29.0105 13.905 29.4305 14.505C29.8605 15.085 30.4155 15.375 31.0955 15.375C31.7455 15.375 32.2855 15.085 32.7155 14.505C33.1555 13.915 33.3755 13.16 33.3755 12.24ZM42.2272 15.57C41.9172 15.57 41.6122 15.58 41.3122 15.6C41.0122 15.63 40.7122 15.67 40.4122 15.72C40.4022 15.59 40.3922 15.46 40.3822 15.33C40.3822 15.21 40.3772 15.09 40.3672 14.97C39.7172 15.61 38.8922 15.93 37.8922 15.93C37.3722 15.93 36.9572 15.82 36.6472 15.6C36.1872 15.29 35.9572 14.78 35.9572 14.07V10.095C35.9572 9.885 35.9072 9.745 35.8072 9.675C35.6372 9.575 35.3822 9.525 35.0422 9.525C35.0322 9.475 35.0272 9.425 35.0272 9.375C35.0272 9.315 35.0222 9.26 35.0122 9.21C35.3322 9.1 35.6422 8.995 35.9422 8.895C36.2522 8.795 36.5622 8.695 36.8722 8.595V13.995C36.8722 14.785 37.3122 15.18 38.1922 15.18C39.1022 15.18 39.8272 14.925 40.3672 14.415V10.065C40.3672 9.935 40.3172 9.84 40.2172 9.78C40.0572 9.59 39.8072 9.495 39.4672 9.495C39.4572 9.445 39.4522 9.395 39.4522 9.345C39.4522 9.295 39.4472 9.245 39.4372 9.195C40.0372 8.975 40.6522 8.77 41.2822 8.58V14.355C41.2822 14.465 41.2972 14.555 41.3272 14.625C41.3472 14.685 41.3672 14.74 41.3872 14.79C41.4072 14.83 41.4272 14.865 41.4472 14.895C41.5972 15.065 41.8572 15.15 42.2272 15.15V15.57ZM45.1344 5.73C45.1344 5.97 45.0544 6.17 44.8944 6.33C44.7344 6.49 44.5344 6.57 44.2944 6.57C44.0744 6.57 43.8894 6.49 43.7394 6.33C43.5994 6.17 43.5294 5.97 43.5294 5.73C43.5294 5.49 43.6044 5.29 43.7544 5.13C43.9044 4.97 44.0844 4.89 44.2944 4.89C44.5344 4.89 44.7344 4.97 44.8944 5.13C45.0544 5.29 45.1344 5.49 45.1344 5.73ZM45.8394 15.66H43.0344V15.165C43.4444 15.165 43.7094 15.105 43.8294 14.985C43.9294 14.895 43.9794 14.73 43.9794 14.49V10.17C43.9794 9.95 43.9344 9.8 43.8444 9.72C43.7344 9.63 43.4694 9.585 43.0494 9.585L42.9894 9.255L44.8944 8.535V14.49C44.8944 14.77 44.9394 14.945 45.0294 15.015C45.1594 15.115 45.4294 15.165 45.8394 15.165V15.66ZM52.4387 13.92C52.4387 14.33 52.3237 14.695 52.0937 15.015C52.0437 15.065 51.9937 15.115 51.9437 15.165C51.9037 15.215 51.8587 15.265 51.8087 15.315C51.3587 15.705 50.7487 15.9 49.9787 15.9C49.4487 15.9 48.9887 15.815 48.5987 15.645C48.5487 15.625 48.4987 15.61 48.4487 15.6C48.4087 15.6 48.3637 15.6 48.3137 15.6H48.1637C48.0537 15.65 47.9487 15.69 47.8487 15.72C47.7487 15.76 47.6437 15.8 47.5337 15.84C47.3937 15.46 47.2487 15.09 47.0987 14.73C46.9487 14.36 46.8037 13.985 46.6637 13.605C46.7037 13.575 46.7387 13.545 46.7687 13.515C46.8087 13.485 46.8537 13.46 46.9037 13.44C47.3337 14.04 47.7437 14.48 48.1337 14.76C48.7537 15.16 49.3637 15.36 49.9637 15.36C50.4337 15.36 50.8287 15.215 51.1487 14.925C51.4087 14.665 51.5387 14.35 51.5387 13.98C51.5387 13.74 51.4437 13.525 51.2537 13.335C51.2137 13.305 51.1637 13.27 51.1037 13.23C51.0437 13.19 50.9737 13.145 50.8937 13.095C50.7637 13.015 50.5937 12.935 50.3837 12.855C50.1737 12.765 49.9187 12.67 49.6187 12.57C49.1487 12.41 48.7587 12.265 48.4487 12.135C48.1387 11.995 47.9037 11.86 47.7437 11.73C47.1437 11.36 46.8437 10.87 46.8437 10.26C46.8437 9.7 47.1087 9.255 47.6387 8.925C48.0387 8.675 48.5387 8.55 49.1387 8.55C49.6587 8.55 50.1937 8.65 50.7437 8.85C50.8237 8.83 50.9087 8.795 50.9987 8.745C51.0887 8.685 51.1887 8.615 51.2987 8.535C51.4387 8.895 51.5787 9.26 51.7187 9.63C51.8587 9.99 51.9987 10.355 52.1387 10.725C52.0887 10.745 52.0387 10.77 51.9887 10.8C51.9487 10.83 51.9037 10.855 51.8537 10.875C51.6037 10.395 51.2687 10.005 50.8487 9.705C50.2287 9.295 49.6587 9.09 49.1387 9.09C48.7587 9.09 48.4587 9.155 48.2387 9.285C47.9087 9.465 47.7437 9.775 47.7437 10.215C47.7437 10.495 47.8887 10.735 48.1787 10.935C48.2187 10.955 48.2587 10.975 48.2987 10.995C48.3387 11.015 48.3837 11.035 48.4337 11.055C48.5737 11.135 48.7487 11.22 48.9587 11.31C49.1687 11.4 49.4037 11.485 49.6637 11.565C50.2037 11.735 50.6487 11.905 50.9987 12.075C51.3587 12.235 51.6337 12.385 51.8237 12.525C52.2337 12.855 52.4387 13.32 52.4387 13.92ZM66.3515 5.67C66.1615 5.67 65.9865 5.69 65.8265 5.73C65.6665 5.76 65.5165 5.825 65.3765 5.925C65.2965 5.975 65.2065 6.06 65.1065 6.18C65.0065 6.3 64.8915 6.445 64.7615 6.615L62.5265 10.005L65.3315 14.415C65.5215 14.725 65.6965 14.92 65.8565 15C66.0565 15.11 66.4065 15.165 66.9065 15.165V15.645H62.9615V15.165C63.6415 15.165 64.0565 15.105 64.2065 14.985C64.2665 14.945 64.2965 14.89 64.2965 14.82C64.2965 14.74 64.2565 14.645 64.1765 14.535L61.9265 10.98L59.9165 14.085C59.7965 14.255 59.7015 14.395 59.6315 14.505C59.5715 14.615 59.5415 14.705 59.5415 14.775C59.5415 14.975 59.7765 15.1 60.2465 15.15C60.3265 15.16 60.4115 15.165 60.5015 15.165C60.5915 15.165 60.6915 15.165 60.8015 15.165V15.645H57.3665V15.165C57.8565 15.165 58.2165 15.075 58.4465 14.895C58.5265 14.825 58.6165 14.74 58.7165 14.64C58.8165 14.53 58.9165 14.4 59.0165 14.25L61.5815 10.38L59.0315 6.345C58.8715 6.095 58.7365 5.935 58.6265 5.865C58.5065 5.785 58.3665 5.735 58.2065 5.715C58.0565 5.685 57.8865 5.67 57.6965 5.67V5.19H61.3865V5.67C61.0165 5.67 60.7365 5.68 60.5465 5.7C60.3665 5.71 60.2415 5.74 60.1715 5.79C60.0315 5.9 60.0165 6.035 60.1265 6.195L62.1815 9.405L64.1615 6.405C64.3015 6.205 64.3165 6.03 64.2065 5.88C64.0965 5.74 63.7365 5.67 63.1265 5.67V5.19H66.3515V5.67ZM71.3767 15.645H67.8367V15.165C68.3267 15.165 68.6667 15.1 68.8567 14.97C69.0267 14.85 69.1117 14.65 69.1117 14.37V6.555C69.1117 6.235 69.0267 6.005 68.8567 5.865C68.6567 5.725 68.3167 5.655 67.8367 5.655V5.19H71.3767V5.655C71.1967 5.655 71.0367 5.67 70.8967 5.7C70.7667 5.72 70.6517 5.745 70.5517 5.775C70.3617 5.845 70.2367 5.945 70.1767 6.075C70.1167 6.195 70.0867 6.355 70.0867 6.555V14.37C70.0867 14.67 70.1617 14.87 70.3117 14.97C70.5117 15.1 70.8667 15.165 71.3767 15.165V15.645ZM76.2839 15.645H72.7439V15.165C73.2339 15.165 73.5739 15.1 73.7639 14.97C73.9339 14.85 74.0189 14.65 74.0189 14.37V6.555C74.0189 6.235 73.9339 6.005 73.7639 5.865C73.5639 5.725 73.2239 5.655 72.7439 5.655V5.19H76.2839V5.655C76.1039 5.655 75.9439 5.67 75.8039 5.7C75.6739 5.72 75.5589 5.745 75.4589 5.775C75.2689 5.845 75.1439 5.945 75.0839 6.075C75.0239 6.195 74.9939 6.355 74.9939 6.555V14.37C74.9939 14.67 75.0689 14.87 75.2189 14.97C75.4189 15.1 75.7739 15.165 76.2839 15.165V15.645ZM81.1912 15.645H77.6512V15.165C78.1412 15.165 78.4812 15.1 78.6712 14.97C78.8412 14.85 78.9262 14.65 78.9262 14.37V6.555C78.9262 6.235 78.8412 6.005 78.6712 5.865C78.4712 5.725 78.1312 5.655 77.6512 5.655V5.19H81.1912V5.655C81.0112 5.655 80.8512 5.67 80.7112 5.7C80.5812 5.72 80.4662 5.745 80.3662 5.775C80.1762 5.845 80.0512 5.945 79.9912 6.075C79.9312 6.195 79.9012 6.355 79.9012 6.555V14.37C79.9012 14.67 79.9762 14.87 80.1262 14.97C80.3262 15.1 80.6812 15.165 81.1912 15.165V15.645ZM40.3992 45.66H36.9342V45.165C37.3642 45.165 37.6742 45.1 37.8642 44.97C38.0442 44.84 38.1342 44.62 38.1342 44.31V40.365H32.7942V44.31C32.7942 44.64 32.8642 44.86 33.0042 44.97C33.1942 45.1 33.5342 45.165 34.0242 45.165V45.66H30.5742V45.165C31.1042 45.165 31.4592 45.09 31.6392 44.94C31.7692 44.81 31.8342 44.6 31.8342 44.31V36.465C31.8342 36.175 31.7642 35.975 31.6242 35.865C31.4342 35.725 31.0942 35.655 30.6042 35.655V35.175H33.9792V35.655C33.4992 35.655 33.1792 35.725 33.0192 35.865C32.8692 35.985 32.7942 36.185 32.7942 36.465V39.81H38.1342V36.465C38.1342 36.185 38.0442 35.985 37.8642 35.865C37.6742 35.725 37.3592 35.655 36.9192 35.655V35.175H40.3242V35.655C39.8442 35.655 39.5092 35.725 39.3192 35.865C39.1792 35.975 39.1092 36.175 39.1092 36.465V44.31C39.1092 44.64 39.1792 44.86 39.3192 44.97C39.5092 45.1 39.8692 45.165 40.3992 45.165V45.66ZM47.4904 43.845C47.5404 43.885 47.5904 43.925 47.6404 43.965C47.7004 44.005 47.7554 44.045 47.8054 44.085C47.5654 44.445 47.3004 44.745 47.0104 44.985C46.7204 45.225 46.4104 45.425 46.0804 45.585C45.6304 45.805 45.1454 45.915 44.6254 45.915C43.6354 45.915 42.8254 45.6 42.1954 44.97C41.5254 44.3 41.1904 43.395 41.1904 42.255C41.1904 41.155 41.5104 40.27 42.1504 39.6C42.7804 38.91 43.5804 38.565 44.5504 38.565C45.5204 38.565 46.2854 38.845 46.8454 39.405C47.4454 39.975 47.7454 40.8 47.7454 41.88C46.8154 41.91 45.9004 41.945 45.0004 41.985C44.1004 42.015 43.1804 42.045 42.2404 42.075C42.2404 42.115 42.2354 42.155 42.2254 42.195C42.2254 42.225 42.2254 42.26 42.2254 42.3C42.2254 42.72 42.2804 43.1 42.3904 43.44C42.5104 43.78 42.6804 44.085 42.9004 44.355C43.3604 44.955 44.0054 45.255 44.8354 45.255C45.2754 45.255 45.7354 45.14 46.2154 44.91C46.4354 44.78 46.6504 44.63 46.8604 44.46C47.0804 44.28 47.2904 44.075 47.4904 43.845ZM42.2704 41.505C43.0204 41.485 43.7604 41.46 44.4904 41.43C45.2204 41.4 45.9604 41.375 46.7104 41.355C46.7004 40.695 46.4954 40.165 46.0954 39.765C45.6854 39.325 45.1704 39.105 44.5504 39.105C43.9504 39.105 43.4254 39.345 42.9754 39.825C42.5554 40.265 42.3204 40.825 42.2704 41.505ZM55.6986 45.57C55.2886 45.57 54.9486 45.585 54.6786 45.615C54.5986 45.625 54.4836 45.64 54.3336 45.66C54.1936 45.68 54.0236 45.7 53.8236 45.72C53.8136 45.64 53.8036 45.56 53.7936 45.48C53.7936 45.4 53.7886 45.32 53.7786 45.24C53.3086 45.68 52.6436 45.9 51.7836 45.9C50.9236 45.9 50.2086 45.6 49.6386 45C49.0086 44.34 48.6936 43.42 48.6936 42.24C48.6936 41.15 48.9986 40.255 49.6086 39.555C50.1886 38.885 50.9136 38.55 51.7836 38.55C52.5836 38.55 53.2486 38.745 53.7786 39.135V36.735C53.7786 36.525 53.7136 36.37 53.5836 36.27C53.4536 36.17 53.1536 36.12 52.6836 36.12C52.6636 36.07 52.6486 36.015 52.6386 35.955C52.6386 35.895 52.6286 35.84 52.6086 35.79C52.9586 35.67 53.3036 35.55 53.6436 35.43C53.9936 35.3 54.3436 35.17 54.6936 35.04V44.355C54.6936 44.585 54.7486 44.745 54.8586 44.835C55.0386 45.065 55.3186 45.18 55.6986 45.18V45.57ZM53.7786 39.87C53.3286 39.4 52.7736 39.165 52.1136 39.165C51.6836 39.165 51.2986 39.265 50.9586 39.465C50.6186 39.665 50.3436 39.95 50.1336 40.32C49.8436 40.85 49.6986 41.495 49.6986 42.255C49.6986 43.145 49.9286 43.865 50.3886 44.415C50.8486 44.985 51.4236 45.27 52.1136 45.27C52.7936 45.27 53.3486 45.025 53.7786 44.535V39.87ZM62.549 43.845C62.599 43.885 62.649 43.925 62.699 43.965C62.759 44.005 62.814 44.045 62.864 44.085C62.624 44.445 62.359 44.745 62.069 44.985C61.779 45.225 61.469 45.425 61.139 45.585C60.689 45.805 60.204 45.915 59.684 45.915C58.694 45.915 57.884 45.6 57.254 44.97C56.584 44.3 56.249 43.395 56.249 42.255C56.249 41.155 56.569 40.27 57.209 39.6C57.839 38.91 58.639 38.565 59.609 38.565C60.579 38.565 61.344 38.845 61.904 39.405C62.504 39.975 62.804 40.8 62.804 41.88C61.874 41.91 60.959 41.945 60.059 41.985C59.159 42.015 58.239 42.045 57.299 42.075C57.299 42.115 57.294 42.155 57.284 42.195C57.284 42.225 57.284 42.26 57.284 42.3C57.284 42.72 57.339 43.1 57.449 43.44C57.569 43.78 57.739 44.085 57.959 44.355C58.419 44.955 59.064 45.255 59.894 45.255C60.334 45.255 60.794 45.14 61.274 44.91C61.494 44.78 61.709 44.63 61.919 44.46C62.139 44.28 62.349 44.075 62.549 43.845ZM57.329 41.505C58.079 41.485 58.819 41.46 59.549 41.43C60.279 41.4 61.019 41.375 61.769 41.355C61.759 40.695 61.554 40.165 61.154 39.765C60.744 39.325 60.229 39.105 59.609 39.105C59.009 39.105 58.484 39.345 58.034 39.825C57.614 40.265 57.379 40.825 57.329 41.505ZM69.4822 43.92C69.4822 44.33 69.3672 44.695 69.1372 45.015C69.0872 45.065 69.0372 45.115 68.9872 45.165C68.9472 45.215 68.9022 45.265 68.8522 45.315C68.4022 45.705 67.7922 45.9 67.0222 45.9C66.4922 45.9 66.0322 45.815 65.6422 45.645C65.5922 45.625 65.5422 45.61 65.4922 45.6C65.4522 45.6 65.4072 45.6 65.3572 45.6H65.2072C65.0972 45.65 64.9922 45.69 64.8922 45.72C64.7922 45.76 64.6872 45.8 64.5772 45.84C64.4372 45.46 64.2922 45.09 64.1422 44.73C63.9922 44.36 63.8472 43.985 63.7072 43.605C63.7472 43.575 63.7822 43.545 63.8122 43.515C63.8522 43.485 63.8972 43.46 63.9472 43.44C64.3772 44.04 64.7872 44.48 65.1772 44.76C65.7972 45.16 66.4072 45.36 67.0072 45.36C67.4772 45.36 67.8722 45.215 68.1922 44.925C68.4522 44.665 68.5822 44.35 68.5822 43.98C68.5822 43.74 68.4872 43.525 68.2972 43.335C68.2572 43.305 68.2072 43.27 68.1472 43.23C68.0872 43.19 68.0172 43.145 67.9372 43.095C67.8072 43.015 67.6372 42.935 67.4272 42.855C67.2172 42.765 66.9622 42.67 66.6622 42.57C66.1922 42.41 65.8022 42.265 65.4922 42.135C65.1822 41.995 64.9472 41.86 64.7872 41.73C64.1872 41.36 63.8872 40.87 63.8872 40.26C63.8872 39.7 64.1522 39.255 64.6822 38.925C65.0822 38.675 65.5822 38.55 66.1822 38.55C66.7022 38.55 67.2372 38.65 67.7872 38.85C67.8672 38.83 67.9522 38.795 68.0422 38.745C68.1322 38.685 68.2322 38.615 68.3422 38.535C68.4822 38.895 68.6222 39.26 68.7622 39.63C68.9022 39.99 69.0422 40.355 69.1822 40.725C69.1322 40.745 69.0822 40.77 69.0322 40.8C68.9922 40.83 68.9472 40.855 68.8972 40.875C68.6472 40.395 68.3122 40.005 67.8922 39.705C67.2722 39.295 66.7022 39.09 66.1822 39.09C65.8022 39.09 65.5022 39.155 65.2822 39.285C64.9522 39.465 64.7872 39.775 64.7872 40.215C64.7872 40.495 64.9322 40.735 65.2222 40.935C65.2622 40.955 65.3022 40.975 65.3422 40.995C65.3822 41.015 65.4272 41.035 65.4772 41.055C65.6172 41.135 65.7922 41.22 66.0022 41.31C66.2122 41.4 66.4472 41.485 66.7072 41.565C67.2472 41.735 67.6922 41.905 68.0422 42.075C68.4022 42.235 68.6772 42.385 68.8672 42.525C69.2772 42.855 69.4822 43.32 69.4822 43.92ZM29.912 67.92C29.912 68.8 29.617 69.51 29.027 70.05C28.427 70.59 27.642 70.86 26.672 70.86H24.062V74.205C24.062 74.565 24.147 74.815 24.317 74.955C24.547 75.095 24.952 75.165 25.532 75.165V75.645H21.722V75.165C22.242 75.165 22.617 75.095 22.847 74.955C23.017 74.815 23.102 74.565 23.102 74.205V66.555C23.102 66.425 23.082 66.325 23.042 66.255C22.992 66.125 22.927 66.02 22.847 65.94C22.657 65.78 22.282 65.7 21.722 65.7V65.19H26.777C27.657 65.19 28.397 65.43 28.997 65.91C29.607 66.4 29.912 67.07 29.912 67.92ZM28.877 67.92C28.877 67.26 28.642 66.725 28.172 66.315C27.702 65.935 27.142 65.745 26.492 65.745H25.502C25.422 65.745 25.337 65.75 25.247 65.76C25.167 65.76 25.087 65.76 25.007 65.76C24.787 65.76 24.592 65.785 24.422 65.835C24.282 65.885 24.187 65.97 24.137 66.09C24.087 66.2 24.062 66.35 24.062 66.54V70.275H26.477C26.847 70.275 27.177 70.22 27.467 70.11C27.767 69.99 28.022 69.83 28.232 69.63C28.662 69.2 28.877 68.63 28.877 67.92ZM37.3325 72.24C37.3325 73.36 37.0125 74.255 36.3725 74.925C35.7625 75.595 34.9825 75.93 34.0325 75.93C33.0725 75.93 32.2875 75.595 31.6775 74.925C31.0375 74.255 30.7175 73.36 30.7175 72.24C30.7175 71.12 31.0375 70.225 31.6775 69.555C32.2875 68.885 33.0725 68.55 34.0325 68.55C34.9825 68.55 35.7625 68.885 36.3725 69.555C37.0125 70.225 37.3325 71.12 37.3325 72.24ZM36.3125 72.24C36.3125 71.32 36.0925 70.565 35.6525 69.975C35.2425 69.385 34.7025 69.09 34.0325 69.09C33.3725 69.09 32.8225 69.385 32.3825 69.975C31.9525 70.565 31.7375 71.32 31.7375 72.24C31.7375 73.15 31.9475 73.905 32.3675 74.505C32.7975 75.085 33.3525 75.375 34.0325 75.375C34.6825 75.375 35.2225 75.085 35.6525 74.505C36.0925 73.915 36.3125 73.16 36.3125 72.24ZM43.9793 73.92C43.9793 74.33 43.8643 74.695 43.6343 75.015C43.5843 75.065 43.5343 75.115 43.4843 75.165C43.4443 75.215 43.3993 75.265 43.3493 75.315C42.8993 75.705 42.2893 75.9 41.5193 75.9C40.9893 75.9 40.5293 75.815 40.1393 75.645C40.0893 75.625 40.0393 75.61 39.9893 75.6C39.9493 75.6 39.9043 75.6 39.8543 75.6H39.7043C39.5943 75.65 39.4893 75.69 39.3893 75.72C39.2893 75.76 39.1843 75.8 39.0743 75.84C38.9343 75.46 38.7893 75.09 38.6393 74.73C38.4893 74.36 38.3443 73.985 38.2043 73.605C38.2443 73.575 38.2793 73.545 38.3093 73.515C38.3493 73.485 38.3943 73.46 38.4443 73.44C38.8743 74.04 39.2843 74.48 39.6743 74.76C40.2943 75.16 40.9043 75.36 41.5043 75.36C41.9743 75.36 42.3693 75.215 42.6893 74.925C42.9493 74.665 43.0793 74.35 43.0793 73.98C43.0793 73.74 42.9843 73.525 42.7943 73.335C42.7543 73.305 42.7043 73.27 42.6443 73.23C42.5843 73.19 42.5143 73.145 42.4343 73.095C42.3043 73.015 42.1343 72.935 41.9243 72.855C41.7143 72.765 41.4593 72.67 41.1593 72.57C40.6893 72.41 40.2993 72.265 39.9893 72.135C39.6793 71.995 39.4443 71.86 39.2843 71.73C38.6843 71.36 38.3843 70.87 38.3843 70.26C38.3843 69.7 38.6493 69.255 39.1793 68.925C39.5793 68.675 40.0793 68.55 40.6793 68.55C41.1993 68.55 41.7343 68.65 42.2843 68.85C42.3643 68.83 42.4493 68.795 42.5393 68.745C42.6293 68.685 42.7293 68.615 42.8393 68.535C42.9793 68.895 43.1193 69.26 43.2593 69.63C43.3993 69.99 43.5393 70.355 43.6793 70.725C43.6293 70.745 43.5793 70.77 43.5293 70.8C43.4893 70.83 43.4443 70.855 43.3943 70.875C43.1443 70.395 42.8093 70.005 42.3893 69.705C41.7693 69.295 41.1993 69.09 40.6793 69.09C40.2993 69.09 39.9993 69.155 39.7793 69.285C39.4493 69.465 39.2843 69.775 39.2843 70.215C39.2843 70.495 39.4293 70.735 39.7193 70.935C39.7593 70.955 39.7993 70.975 39.8393 70.995C39.8793 71.015 39.9243 71.035 39.9743 71.055C40.1143 71.135 40.2893 71.22 40.4993 71.31C40.7093 71.4 40.9443 71.485 41.2043 71.565C41.7443 71.735 42.1893 71.905 42.5393 72.075C42.8993 72.235 43.1743 72.385 43.3643 72.525C43.7743 72.855 43.9793 73.32 43.9793 73.92ZM51.1379 73.845C51.1879 73.885 51.2379 73.925 51.2879 73.965C51.3479 74.005 51.4029 74.045 51.4529 74.085C51.2129 74.445 50.9479 74.745 50.6579 74.985C50.3679 75.225 50.0579 75.425 49.7279 75.585C49.2779 75.805 48.7929 75.915 48.2729 75.915C47.2829 75.915 46.4729 75.6 45.8429 74.97C45.1729 74.3 44.8379 73.395 44.8379 72.255C44.8379 71.155 45.1579 70.27 45.7979 69.6C46.4279 68.91 47.2279 68.565 48.1979 68.565C49.1679 68.565 49.9329 68.845 50.4929 69.405C51.0929 69.975 51.3929 70.8 51.3929 71.88C50.4629 71.91 49.5479 71.945 48.6479 71.985C47.7479 72.015 46.8279 72.045 45.8879 72.075C45.8879 72.115 45.8829 72.155 45.8729 72.195C45.8729 72.225 45.8729 72.26 45.8729 72.3C45.8729 72.72 45.9279 73.1 46.0379 73.44C46.1579 73.78 46.3279 74.085 46.5479 74.355C47.0079 74.955 47.6529 75.255 48.4829 75.255C48.9229 75.255 49.3829 75.14 49.8629 74.91C50.0829 74.78 50.2979 74.63 50.5079 74.46C50.7279 74.28 50.9379 74.075 51.1379 73.845ZM45.9179 71.505C46.6679 71.485 47.4079 71.46 48.1379 71.43C48.8679 71.4 49.6079 71.375 50.3579 71.355C50.3479 70.695 50.1429 70.165 49.7429 69.765C49.3329 69.325 48.8179 69.105 48.1979 69.105C47.5979 69.105 47.0729 69.345 46.6229 69.825C46.2029 70.265 45.9679 70.825 45.9179 71.505ZM54.5461 65.73C54.5461 65.97 54.4661 66.17 54.3061 66.33C54.1461 66.49 53.9461 66.57 53.7061 66.57C53.4861 66.57 53.3011 66.49 53.1511 66.33C53.0111 66.17 52.9411 65.97 52.9411 65.73C52.9411 65.49 53.0161 65.29 53.1661 65.13C53.3161 64.97 53.4961 64.89 53.7061 64.89C53.9461 64.89 54.1461 64.97 54.3061 65.13C54.4661 65.29 54.5461 65.49 54.5461 65.73ZM55.2511 75.66H52.4461V75.165C52.8561 75.165 53.1211 75.105 53.2411 74.985C53.3411 74.895 53.3911 74.73 53.3911 74.49V70.17C53.3911 69.95 53.3461 69.8 53.2561 69.72C53.1461 69.63 52.8811 69.585 52.4611 69.585L52.4011 69.255L54.3061 68.535V74.49C54.3061 74.77 54.3511 74.945 54.4411 75.015C54.5711 75.115 54.8411 75.165 55.2511 75.165V75.66ZM63.1254 75.57C62.7154 75.57 62.3754 75.585 62.1054 75.615C62.0254 75.625 61.9104 75.64 61.7604 75.66C61.6204 75.68 61.4504 75.7 61.2504 75.72C61.2404 75.64 61.2304 75.56 61.2204 75.48C61.2204 75.4 61.2154 75.32 61.2054 75.24C60.7354 75.68 60.0704 75.9 59.2104 75.9C58.3504 75.9 57.6354 75.6 57.0654 75C56.4354 74.34 56.1204 73.42 56.1204 72.24C56.1204 71.15 56.4254 70.255 57.0354 69.555C57.6154 68.885 58.3404 68.55 59.2104 68.55C60.0104 68.55 60.6754 68.745 61.2054 69.135V66.735C61.2054 66.525 61.1404 66.37 61.0104 66.27C60.8804 66.17 60.5804 66.12 60.1104 66.12C60.0904 66.07 60.0754 66.015 60.0654 65.955C60.0654 65.895 60.0554 65.84 60.0354 65.79C60.3854 65.67 60.7304 65.55 61.0704 65.43C61.4204 65.3 61.7704 65.17 62.1204 65.04V74.355C62.1204 74.585 62.1754 74.745 62.2854 74.835C62.4654 75.065 62.7454 75.18 63.1254 75.18V75.57ZM61.2054 69.87C60.7554 69.4 60.2004 69.165 59.5404 69.165C59.1104 69.165 58.7254 69.265 58.3854 69.465C58.0454 69.665 57.7704 69.95 57.5604 70.32C57.2704 70.85 57.1254 71.495 57.1254 72.255C57.1254 73.145 57.3554 73.865 57.8154 74.415C58.2754 74.985 58.8504 75.27 59.5404 75.27C60.2204 75.27 60.7754 75.025 61.2054 74.535V69.87ZM70.3208 72.24C70.3208 73.36 70.0008 74.255 69.3608 74.925C68.7508 75.595 67.9708 75.93 67.0208 75.93C66.0608 75.93 65.2758 75.595 64.6658 74.925C64.0258 74.255 63.7058 73.36 63.7058 72.24C63.7058 71.12 64.0258 70.225 64.6658 69.555C65.2758 68.885 66.0608 68.55 67.0208 68.55C67.9708 68.55 68.7508 68.885 69.3608 69.555C70.0008 70.225 70.3208 71.12 70.3208 72.24ZM69.3008 72.24C69.3008 71.32 69.0808 70.565 68.6408 69.975C68.2308 69.385 67.6908 69.09 67.0208 69.09C66.3608 69.09 65.8108 69.385 65.3708 69.975C64.9408 70.565 64.7258 71.32 64.7258 72.24C64.7258 73.15 64.9358 73.905 65.3558 74.505C65.7858 75.085 66.3408 75.375 67.0208 75.375C67.6708 75.375 68.2108 75.085 68.6408 74.505C69.0808 73.915 69.3008 73.16 69.3008 72.24ZM78.3625 75.645H75.4375V75.165C75.7875 75.165 76.0325 75.12 76.1725 75.03C76.3425 74.92 76.4275 74.705 76.4275 74.385V70.62C76.4275 69.78 76.0325 69.36 75.2425 69.36C74.7725 69.36 74.3775 69.44 74.0575 69.6C73.9175 69.67 73.7525 69.765 73.5625 69.885C73.3725 69.995 73.1625 70.13 72.9325 70.29V74.385C72.9325 74.685 72.9975 74.885 73.1275 74.985C73.2075 75.035 73.3175 75.075 73.4575 75.105C73.5975 75.145 73.7675 75.165 73.9675 75.165V75.645H71.0425V75.165C71.4225 75.165 71.6975 75.105 71.8675 74.985C71.9675 74.885 72.0175 74.685 72.0175 74.385V70.245C72.0175 69.975 71.9675 69.805 71.8675 69.735C71.7275 69.625 71.4725 69.57 71.1025 69.57C71.0825 69.52 71.0675 69.465 71.0575 69.405C71.0575 69.345 71.0475 69.29 71.0275 69.24C71.3475 69.13 71.6625 69.02 71.9725 68.91C72.2925 68.8 72.6125 68.69 72.9325 68.58V69.645C73.7825 68.945 74.6475 68.595 75.5275 68.595C76.1375 68.595 76.5925 68.77 76.8925 69.12C77.1925 69.48 77.3425 69.99 77.3425 70.65V74.37C77.3425 74.68 77.4025 74.885 77.5225 74.985C77.6025 75.035 77.7125 75.075 77.8525 75.105C77.9925 75.145 78.1625 75.165 78.3625 75.165V75.645ZM42.9637 95.19C43.0037 95.25 43.0387 95.31 43.0687 95.37C43.0987 95.43 43.1337 95.495 43.1737 95.565C42.0537 97.175 40.9387 98.77 39.8287 100.35C38.7187 101.92 37.6037 103.505 36.4837 105.105H39.9487C40.3187 105.105 40.6587 105.04 40.9687 104.91C41.2787 104.77 41.5787 104.55 41.8687 104.25C42.1387 103.97 42.4287 103.525 42.7387 102.915C42.7987 102.935 42.8537 102.96 42.9037 102.99C42.9637 103.02 43.0237 103.045 43.0837 103.065C42.9137 103.495 42.7437 103.93 42.5737 104.37C42.4137 104.8 42.2487 105.225 42.0787 105.645H35.3587L35.1337 105.375C36.2537 103.755 37.3737 102.15 38.4937 100.56C39.6137 98.96 40.7337 97.35 41.8537 95.73H38.8987C38.5187 95.73 38.1787 95.78 37.8787 95.88C37.5787 95.98 37.3087 96.115 37.0687 96.285C36.8687 96.425 36.6687 96.625 36.4687 96.885C36.2687 97.145 36.0687 97.475 35.8687 97.875C35.8187 97.855 35.7637 97.835 35.7037 97.815C35.6437 97.785 35.5887 97.76 35.5387 97.74C35.6787 97.31 35.8237 96.885 35.9737 96.465C36.1237 96.035 36.2687 95.61 36.4087 95.19H42.9637ZM50.2224 103.845C50.2724 103.885 50.3224 103.925 50.3724 103.965C50.4324 104.005 50.4874 104.045 50.5374 104.085C50.2974 104.445 50.0324 104.745 49.7424 104.985C49.4524 105.225 49.1424 105.425 48.8124 105.585C48.3624 105.805 47.8774 105.915 47.3574 105.915C46.3674 105.915 45.5574 105.6 44.9274 104.97C44.2574 104.3 43.9224 103.395 43.9224 102.255C43.9224 101.155 44.2424 100.27 44.8824 99.6C45.5124 98.91 46.3124 98.565 47.2824 98.565C48.2524 98.565 49.0174 98.845 49.5774 99.405C50.1774 99.975 50.4774 100.8 50.4774 101.88C49.5474 101.91 48.6324 101.945 47.7324 101.985C46.8324 102.015 45.9124 102.045 44.9724 102.075C44.9724 102.115 44.9674 102.155 44.9574 102.195C44.9574 102.225 44.9574 102.26 44.9574 102.3C44.9574 102.72 45.0124 103.1 45.1224 103.44C45.2424 103.78 45.4124 104.085 45.6324 104.355C46.0924 104.955 46.7374 105.255 47.5674 105.255C48.0074 105.255 48.4674 105.14 48.9474 104.91C49.1674 104.78 49.3824 104.63 49.5924 104.46C49.8124 104.28 50.0224 104.075 50.2224 103.845ZM45.0024 101.505C45.7524 101.485 46.4924 101.46 47.2224 101.43C47.9524 101.4 48.6924 101.375 49.4424 101.355C49.4324 100.695 49.2274 100.165 48.8274 99.765C48.4174 99.325 47.9024 99.105 47.2824 99.105C46.6824 99.105 46.1574 99.345 45.7074 99.825C45.2874 100.265 45.0524 100.825 45.0024 101.505ZM58.3405 105.57C58.0305 105.57 57.7255 105.58 57.4255 105.6C57.1255 105.63 56.8255 105.67 56.5255 105.72C56.5155 105.59 56.5055 105.46 56.4955 105.33C56.4955 105.21 56.4905 105.09 56.4805 104.97C55.8305 105.61 55.0055 105.93 54.0055 105.93C53.4855 105.93 53.0705 105.82 52.7605 105.6C52.3005 105.29 52.0705 104.78 52.0705 104.07V100.095C52.0705 99.885 52.0205 99.745 51.9205 99.675C51.7505 99.575 51.4955 99.525 51.1555 99.525C51.1455 99.475 51.1405 99.425 51.1405 99.375C51.1405 99.315 51.1355 99.26 51.1255 99.21C51.4455 99.1 51.7555 98.995 52.0555 98.895C52.3655 98.795 52.6755 98.695 52.9855 98.595V103.995C52.9855 104.785 53.4255 105.18 54.3055 105.18C55.2155 105.18 55.9405 104.925 56.4805 104.415V100.065C56.4805 99.935 56.4305 99.84 56.3305 99.78C56.1705 99.59 55.9205 99.495 55.5805 99.495C55.5705 99.445 55.5655 99.395 55.5655 99.345C55.5655 99.295 55.5605 99.245 55.5505 99.195C56.1505 98.975 56.7655 98.77 57.3955 98.58V104.355C57.3955 104.465 57.4105 104.555 57.4405 104.625C57.4605 104.685 57.4805 104.74 57.5005 104.79C57.5205 104.83 57.5405 104.865 57.5605 104.895C57.7105 105.065 57.9705 105.15 58.3405 105.15V105.57ZM64.7727 103.92C64.7727 104.33 64.6577 104.695 64.4277 105.015C64.3777 105.065 64.3277 105.115 64.2777 105.165C64.2377 105.215 64.1927 105.265 64.1427 105.315C63.6927 105.705 63.0827 105.9 62.3127 105.9C61.7827 105.9 61.3227 105.815 60.9327 105.645C60.8827 105.625 60.8327 105.61 60.7827 105.6C60.7427 105.6 60.6977 105.6 60.6477 105.6H60.4977C60.3877 105.65 60.2827 105.69 60.1827 105.72C60.0827 105.76 59.9777 105.8 59.8677 105.84C59.7277 105.46 59.5827 105.09 59.4327 104.73C59.2827 104.36 59.1377 103.985 58.9977 103.605C59.0377 103.575 59.0727 103.545 59.1027 103.515C59.1427 103.485 59.1877 103.46 59.2377 103.44C59.6677 104.04 60.0777 104.48 60.4677 104.76C61.0877 105.16 61.6977 105.36 62.2977 105.36C62.7677 105.36 63.1627 105.215 63.4827 104.925C63.7427 104.665 63.8727 104.35 63.8727 103.98C63.8727 103.74 63.7777 103.525 63.5877 103.335C63.5477 103.305 63.4977 103.27 63.4377 103.23C63.3777 103.19 63.3077 103.145 63.2277 103.095C63.0977 103.015 62.9277 102.935 62.7177 102.855C62.5077 102.765 62.2527 102.67 61.9527 102.57C61.4827 102.41 61.0927 102.265 60.7827 102.135C60.4727 101.995 60.2377 101.86 60.0777 101.73C59.4777 101.36 59.1777 100.87 59.1777 100.26C59.1777 99.7 59.4427 99.255 59.9727 98.925C60.3727 98.675 60.8727 98.55 61.4727 98.55C61.9927 98.55 62.5277 98.65 63.0777 98.85C63.1577 98.83 63.2427 98.795 63.3327 98.745C63.4227 98.685 63.5227 98.615 63.6327 98.535C63.7727 98.895 63.9127 99.26 64.0527 99.63C64.1927 99.99 64.3327 100.355 64.4727 100.725C64.4227 100.745 64.3727 100.77 64.3227 100.8C64.2827 100.83 64.2377 100.855 64.1877 100.875C63.9377 100.395 63.6027 100.005 63.1827 99.705C62.5627 99.295 61.9927 99.09 61.4727 99.09C61.0927 99.09 60.7927 99.155 60.5727 99.285C60.2427 99.465 60.0777 99.775 60.0777 100.215C60.0777 100.495 60.2227 100.735 60.5127 100.935C60.5527 100.955 60.5927 100.975 60.6327 100.995C60.6727 101.015 60.7177 101.035 60.7677 101.055C60.9077 101.135 61.0827 101.22 61.2927 101.31C61.5027 101.4 61.7377 101.485 61.9977 101.565C62.5377 101.735 62.9827 101.905 63.3327 102.075C63.6927 102.235 63.9677 102.385 64.1577 102.525C64.5677 102.855 64.7727 103.32 64.7727 103.92ZM31.8591 135.66H28.3941V135.165C28.8241 135.165 29.1341 135.1 29.3241 134.97C29.5041 134.84 29.5941 134.62 29.5941 134.31V130.365H24.2541V134.31C24.2541 134.64 24.3241 134.86 24.4641 134.97C24.6541 135.1 24.9941 135.165 25.4841 135.165V135.66H22.0341V135.165C22.5641 135.165 22.9191 135.09 23.0991 134.94C23.2291 134.81 23.2941 134.6 23.2941 134.31V126.465C23.2941 126.175 23.2241 125.975 23.0841 125.865C22.8941 125.725 22.5541 125.655 22.0641 125.655V125.175H25.4391V125.655C24.9591 125.655 24.6391 125.725 24.4791 125.865C24.3291 125.985 24.2541 126.185 24.2541 126.465V129.81H29.5941V126.465C29.5941 126.185 29.5041 125.985 29.3241 125.865C29.1341 125.725 28.8191 125.655 28.3791 125.655V125.175H31.7841V125.655C31.3041 125.655 30.9691 125.725 30.7791 125.865C30.6391 125.975 30.5691 126.175 30.5691 126.465V134.31C30.5691 134.64 30.6391 134.86 30.7791 134.97C30.9691 135.1 31.3291 135.165 31.8591 135.165V135.66ZM38.9504 133.845C39.0004 133.885 39.0504 133.925 39.1004 133.965C39.1604 134.005 39.2154 134.045 39.2654 134.085C39.0254 134.445 38.7604 134.745 38.4704 134.985C38.1804 135.225 37.8704 135.425 37.5404 135.585C37.0904 135.805 36.6054 135.915 36.0854 135.915C35.0954 135.915 34.2854 135.6 33.6554 134.97C32.9854 134.3 32.6504 133.395 32.6504 132.255C32.6504 131.155 32.9704 130.27 33.6104 129.6C34.2404 128.91 35.0404 128.565 36.0104 128.565C36.9804 128.565 37.7454 128.845 38.3054 129.405C38.9054 129.975 39.2054 130.8 39.2054 131.88C38.2754 131.91 37.3604 131.945 36.4604 131.985C35.5604 132.015 34.6404 132.045 33.7004 132.075C33.7004 132.115 33.6954 132.155 33.6854 132.195C33.6854 132.225 33.6854 132.26 33.6854 132.3C33.6854 132.72 33.7404 133.1 33.8504 133.44C33.9704 133.78 34.1404 134.085 34.3604 134.355C34.8204 134.955 35.4654 135.255 36.2954 135.255C36.7354 135.255 37.1954 135.14 37.6754 134.91C37.8954 134.78 38.1104 134.63 38.3204 134.46C38.5404 134.28 38.7504 134.075 38.9504 133.845ZM33.7304 131.505C34.4804 131.485 35.2204 131.46 35.9504 131.43C36.6804 131.4 37.4204 131.375 38.1704 131.355C38.1604 130.695 37.9554 130.165 37.5554 129.765C37.1454 129.325 36.6304 129.105 36.0104 129.105C35.4104 129.105 34.8854 129.345 34.4354 129.825C34.0154 130.265 33.7804 130.825 33.7304 131.505ZM45.6136 129.24C45.6136 129.76 45.3836 130.02 44.9236 130.02C44.7336 130.02 44.5236 129.935 44.2936 129.765C44.1236 129.625 43.9386 129.555 43.7386 129.555C43.4786 129.555 43.1536 129.705 42.7636 130.005C42.4536 130.245 42.1536 130.52 41.8636 130.83V134.46C41.8636 134.74 41.9136 134.925 42.0136 135.015C42.1236 135.115 42.3986 135.165 42.8386 135.165V135.645H39.9886V135.165C40.2486 135.165 40.4486 135.145 40.5886 135.105C40.7286 135.065 40.8236 135.005 40.8736 134.925C40.9236 134.845 40.9486 134.72 40.9486 134.55V130.17C40.9486 129.97 40.9136 129.835 40.8436 129.765C40.8036 129.725 40.7186 129.68 40.5886 129.63C40.4486 129.6 40.2786 129.585 40.0786 129.585C40.0586 129.535 40.0436 129.485 40.0336 129.435C40.0236 129.385 40.0086 129.335 39.9886 129.285C40.3086 129.155 40.6236 129.03 40.9336 128.91C41.2436 128.78 41.5536 128.65 41.8636 128.52V130.065C42.1036 129.835 42.3436 129.625 42.5836 129.435C42.8236 129.245 43.0586 129.085 43.2886 128.955C43.7886 128.665 44.2736 128.52 44.7436 128.52C45.3236 128.52 45.6136 128.76 45.6136 129.24ZM52.2291 133.845C52.2791 133.885 52.3291 133.92 52.3791 133.95C52.4291 133.98 52.4791 134.015 52.5291 134.055C51.7991 135.295 50.8191 135.915 49.5891 135.915C48.7091 135.915 47.9591 135.605 47.3391 134.985C46.7191 134.305 46.4091 133.45 46.4091 132.42C46.4091 131.35 46.7491 130.43 47.4291 129.66C48.0891 128.94 48.9141 128.58 49.9041 128.58C50.4941 128.58 51.0091 128.695 51.4491 128.925C51.6091 129.005 51.7541 129.1 51.8841 129.21C52.0241 129.32 52.1391 129.45 52.2291 129.6C52.3291 129.77 52.3791 129.94 52.3791 130.11C52.3791 130.29 52.3291 130.46 52.2291 130.62C52.1291 130.78 51.9791 130.86 51.7791 130.86C51.4191 130.86 51.1791 130.58 51.0591 130.02C51.0291 129.87 50.9691 129.745 50.8791 129.645C50.7891 129.545 50.6791 129.455 50.5491 129.375C50.2891 129.215 49.9691 129.135 49.5891 129.135C49.0191 129.135 48.5141 129.43 48.0741 130.02C47.6341 130.64 47.4141 131.37 47.4141 132.21C47.4141 132.66 47.4691 133.07 47.5791 133.44C47.6991 133.81 47.8741 134.13 48.1041 134.4C48.5741 134.96 49.1591 135.24 49.8591 135.24C50.7191 135.24 51.5091 134.775 52.2291 133.845ZM60.3986 135.57C60.0886 135.57 59.7836 135.58 59.4836 135.6C59.1836 135.63 58.8836 135.67 58.5836 135.72C58.5736 135.59 58.5636 135.46 58.5536 135.33C58.5536 135.21 58.5486 135.09 58.5386 134.97C57.8886 135.61 57.0636 135.93 56.0636 135.93C55.5436 135.93 55.1286 135.82 54.8186 135.6C54.3586 135.29 54.1286 134.78 54.1286 134.07V130.095C54.1286 129.885 54.0786 129.745 53.9786 129.675C53.8086 129.575 53.5536 129.525 53.2136 129.525C53.2036 129.475 53.1986 129.425 53.1986 129.375C53.1986 129.315 53.1936 129.26 53.1836 129.21C53.5036 129.1 53.8136 128.995 54.1136 128.895C54.4236 128.795 54.7336 128.695 55.0436 128.595V133.995C55.0436 134.785 55.4836 135.18 56.3636 135.18C57.2736 135.18 57.9986 134.925 58.5386 134.415V130.065C58.5386 129.935 58.4886 129.84 58.3886 129.78C58.2286 129.59 57.9786 129.495 57.6386 129.495C57.6286 129.445 57.6236 129.395 57.6236 129.345C57.6236 129.295 57.6186 129.245 57.6086 129.195C58.2086 128.975 58.8236 128.77 59.4536 128.58V134.355C59.4536 134.465 59.4686 134.555 59.4986 134.625C59.5186 134.685 59.5386 134.74 59.5586 134.79C59.5786 134.83 59.5986 134.865 59.6186 134.895C59.7686 135.065 60.0286 135.15 60.3986 135.15V135.57ZM63.9808 135.645H61.1008V135.165C61.4908 135.165 61.7558 135.11 61.8958 135C62.0158 134.9 62.0758 134.685 62.0758 134.355V126.54C62.0758 126.37 62.0158 126.25 61.8958 126.18C61.7758 126.1 61.5208 126.06 61.1308 126.06L61.0408 125.7C61.3608 125.58 61.6858 125.465 62.0158 125.355C62.3458 125.235 62.6708 125.115 62.9908 124.995V134.355C62.9908 134.665 63.0458 134.875 63.1558 134.985C63.2358 135.035 63.3408 135.075 63.4708 135.105C63.6108 135.145 63.7808 135.165 63.9808 135.165V135.645ZM71.0891 133.845C71.1391 133.885 71.1891 133.925 71.2391 133.965C71.2991 134.005 71.3541 134.045 71.4041 134.085C71.1641 134.445 70.8991 134.745 70.6091 134.985C70.3191 135.225 70.0091 135.425 69.6791 135.585C69.2291 135.805 68.7441 135.915 68.2241 135.915C67.2341 135.915 66.4241 135.6 65.7941 134.97C65.1241 134.3 64.7891 133.395 64.7891 132.255C64.7891 131.155 65.1091 130.27 65.7491 129.6C66.3791 128.91 67.1791 128.565 68.1491 128.565C69.1191 128.565 69.8841 128.845 70.4441 129.405C71.0441 129.975 71.3441 130.8 71.3441 131.88C70.4141 131.91 69.4991 131.945 68.5991 131.985C67.6991 132.015 66.7791 132.045 65.8391 132.075C65.8391 132.115 65.8341 132.155 65.8241 132.195C65.8241 132.225 65.8241 132.26 65.8241 132.3C65.8241 132.72 65.8791 133.1 65.9891 133.44C66.1091 133.78 66.2791 134.085 66.4991 134.355C66.9591 134.955 67.6041 135.255 68.4341 135.255C68.8741 135.255 69.3341 135.14 69.8141 134.91C70.0341 134.78 70.2491 134.63 70.4591 134.46C70.6791 134.28 70.8891 134.075 71.0891 133.845ZM65.8691 131.505C66.6191 131.485 67.3591 131.46 68.0891 131.43C68.8191 131.4 69.5591 131.375 70.3091 131.355C70.2991 130.695 70.0941 130.165 69.6941 129.765C69.2841 129.325 68.7691 129.105 68.1491 129.105C67.5491 129.105 67.0241 129.345 66.5741 129.825C66.1541 130.265 65.9191 130.825 65.8691 131.505ZM78.0222 133.92C78.0222 134.33 77.9072 134.695 77.6772 135.015C77.6272 135.065 77.5772 135.115 77.5272 135.165C77.4872 135.215 77.4422 135.265 77.3922 135.315C76.9422 135.705 76.3322 135.9 75.5622 135.9C75.0322 135.9 74.5722 135.815 74.1822 135.645C74.1322 135.625 74.0822 135.61 74.0322 135.6C73.9922 135.6 73.9472 135.6 73.8972 135.6H73.7472C73.6372 135.65 73.5322 135.69 73.4322 135.72C73.3322 135.76 73.2272 135.8 73.1172 135.84C72.9772 135.46 72.8322 135.09 72.6822 134.73C72.5322 134.36 72.3872 133.985 72.2472 133.605C72.2872 133.575 72.3222 133.545 72.3522 133.515C72.3922 133.485 72.4372 133.46 72.4872 133.44C72.9172 134.04 73.3272 134.48 73.7172 134.76C74.3372 135.16 74.9472 135.36 75.5472 135.36C76.0172 135.36 76.4122 135.215 76.7322 134.925C76.9922 134.665 77.1222 134.35 77.1222 133.98C77.1222 133.74 77.0272 133.525 76.8372 133.335C76.7972 133.305 76.7472 133.27 76.6872 133.23C76.6272 133.19 76.5572 133.145 76.4772 133.095C76.3472 133.015 76.1772 132.935 75.9672 132.855C75.7572 132.765 75.5022 132.67 75.2022 132.57C74.7322 132.41 74.3422 132.265 74.0322 132.135C73.7222 131.995 73.4872 131.86 73.3272 131.73C72.7272 131.36 72.4272 130.87 72.4272 130.26C72.4272 129.7 72.6922 129.255 73.2222 128.925C73.6222 128.675 74.1222 128.55 74.7222 128.55C75.2422 128.55 75.7772 128.65 76.3272 128.85C76.4072 128.83 76.4922 128.795 76.5822 128.745C76.6722 128.685 76.7722 128.615 76.8822 128.535C77.0222 128.895 77.1622 129.26 77.3022 129.63C77.4422 129.99 77.5822 130.355 77.7222 130.725C77.6722 130.745 77.6222 130.77 77.5722 130.8C77.5322 130.83 77.4872 130.855 77.4372 130.875C77.1872 130.395 76.8522 130.005 76.4322 129.705C75.8122 129.295 75.2422 129.09 74.7222 129.09C74.3422 129.09 74.0422 129.155 73.8222 129.285C73.4922 129.465 73.3272 129.775 73.3272 130.215C73.3272 130.495 73.4722 130.735 73.7622 130.935C73.8022 130.955 73.8422 130.975 73.8822 130.995C73.9222 131.015 73.9672 131.035 74.0172 131.055C74.1572 131.135 74.3322 131.22 74.5422 131.31C74.7522 131.4 74.9872 131.485 75.2472 131.565C75.7872 131.735 76.2322 131.905 76.5822 132.075C76.9422 132.235 77.2172 132.385 77.4072 132.525C77.8172 132.855 78.0222 133.32 78.0222 133.92ZM36.0045 164.85C36.0045 164.79 35.9795 164.72 35.9295 164.64L32.6445 159.855L30.7245 161.55V164.4C30.7245 164.69 30.7895 164.88 30.9195 164.97C31.1095 165.1 31.4495 165.165 31.9395 165.165V165.645H28.5645V165.165C29.0345 165.165 29.3645 165.1 29.5545 164.97C29.7045 164.87 29.7795 164.675 29.7795 164.385V156.57C29.7795 156.22 29.7095 155.985 29.5695 155.865C29.3995 155.725 29.0645 155.655 28.5645 155.655V155.19H31.9395V155.655C31.4495 155.655 31.1145 155.73 30.9345 155.88C30.7945 155.99 30.7245 156.225 30.7245 156.585V160.77L35.5395 156.435C35.6295 156.345 35.6895 156.25 35.7195 156.15C35.7495 156.05 35.7195 155.955 35.6295 155.865C35.5095 155.725 35.1445 155.655 34.5345 155.655V155.19H37.9545V155.67C37.7845 155.67 37.6295 155.685 37.4895 155.715C37.3595 155.745 37.2245 155.8 37.0845 155.88C36.8745 156.01 36.5845 156.235 36.2145 156.555L33.3495 159.135L36.9045 164.355C37.0145 164.525 37.1145 164.66 37.2045 164.76C37.2945 164.86 37.3695 164.935 37.4295 164.985C37.5395 165.065 37.6795 165.115 37.8495 165.135C38.0295 165.155 38.2295 165.165 38.4495 165.165V165.645H34.7145V165.165C35.3645 165.165 35.7445 165.13 35.8545 165.06C35.9545 165 36.0045 164.93 36.0045 164.85ZM44.7493 159.24C44.7493 159.76 44.5193 160.02 44.0593 160.02C43.8693 160.02 43.6593 159.935 43.4293 159.765C43.2593 159.625 43.0743 159.555 42.8743 159.555C42.6143 159.555 42.2893 159.705 41.8993 160.005C41.5893 160.245 41.2893 160.52 40.9993 160.83V164.46C40.9993 164.74 41.0493 164.925 41.1493 165.015C41.2593 165.115 41.5343 165.165 41.9743 165.165V165.645H39.1243V165.165C39.3843 165.165 39.5843 165.145 39.7243 165.105C39.8643 165.065 39.9593 165.005 40.0093 164.925C40.0593 164.845 40.0843 164.72 40.0843 164.55V160.17C40.0843 159.97 40.0493 159.835 39.9793 159.765C39.9393 159.725 39.8543 159.68 39.7243 159.63C39.5843 159.6 39.4143 159.585 39.2143 159.585C39.1943 159.535 39.1793 159.485 39.1693 159.435C39.1593 159.385 39.1443 159.335 39.1243 159.285C39.4443 159.155 39.7593 159.03 40.0693 158.91C40.3793 158.78 40.6893 158.65 40.9993 158.52V160.065C41.2393 159.835 41.4793 159.625 41.7193 159.435C41.9593 159.245 42.1943 159.085 42.4243 158.955C42.9243 158.665 43.4093 158.52 43.8793 158.52C44.4593 158.52 44.7493 158.76 44.7493 159.24ZM51.6799 163.845C51.7299 163.885 51.7799 163.925 51.8299 163.965C51.8899 164.005 51.9449 164.045 51.9949 164.085C51.7549 164.445 51.4899 164.745 51.1999 164.985C50.9099 165.225 50.5999 165.425 50.2699 165.585C49.8199 165.805 49.3349 165.915 48.8149 165.915C47.8249 165.915 47.0149 165.6 46.3849 164.97C45.7149 164.3 45.3799 163.395 45.3799 162.255C45.3799 161.155 45.6999 160.27 46.3399 159.6C46.9699 158.91 47.7699 158.565 48.7399 158.565C49.7099 158.565 50.4749 158.845 51.0349 159.405C51.6349 159.975 51.9349 160.8 51.9349 161.88C51.0049 161.91 50.0899 161.945 49.1899 161.985C48.2899 162.015 47.3699 162.045 46.4299 162.075C46.4299 162.115 46.4249 162.155 46.4149 162.195C46.4149 162.225 46.4149 162.26 46.4149 162.3C46.4149 162.72 46.4699 163.1 46.5799 163.44C46.6999 163.78 46.8699 164.085 47.0899 164.355C47.5499 164.955 48.1949 165.255 49.0249 165.255C49.4649 165.255 49.9249 165.14 50.4049 164.91C50.6249 164.78 50.8399 164.63 51.0499 164.46C51.2699 164.28 51.4799 164.075 51.6799 163.845ZM46.4599 161.505C47.2099 161.485 47.9499 161.46 48.6799 161.43C49.4099 161.4 50.1499 161.375 50.8999 161.355C50.8899 160.695 50.6849 160.165 50.2849 159.765C49.8749 159.325 49.3599 159.105 48.7399 159.105C48.1399 159.105 47.6149 159.345 47.1649 159.825C46.7449 160.265 46.5099 160.825 46.4599 161.505ZM56.948 164.175C56.998 164.215 57.043 164.25 57.083 164.28C57.133 164.31 57.183 164.34 57.233 164.37C57.053 164.79 56.808 165.14 56.498 165.42C56.148 165.75 55.768 165.915 55.358 165.915C54.818 165.915 54.408 165.72 54.128 165.33C54.048 165.19 53.983 165.03 53.933 164.85C53.883 164.67 53.858 164.47 53.858 164.25V159.285H52.688V158.805C53.228 158.805 53.628 158.6 53.888 158.19C54.178 157.72 54.323 157.05 54.323 156.18H54.773V158.7H56.738V159.285H54.773V164.355C54.773 164.885 55.053 165.15 55.613 165.15C56.063 165.15 56.508 164.825 56.948 164.175ZM64.9396 165.57C64.6296 165.57 64.3246 165.58 64.0246 165.6C63.7246 165.63 63.4246 165.67 63.1246 165.72C63.1146 165.59 63.1046 165.46 63.0946 165.33C63.0946 165.21 63.0896 165.09 63.0796 164.97C62.4296 165.61 61.6046 165.93 60.6046 165.93C60.0846 165.93 59.6696 165.82 59.3596 165.6C58.8996 165.29 58.6696 164.78 58.6696 164.07V160.095C58.6696 159.885 58.6196 159.745 58.5196 159.675C58.3496 159.575 58.0946 159.525 57.7546 159.525C57.7446 159.475 57.7396 159.425 57.7396 159.375C57.7396 159.315 57.7346 159.26 57.7246 159.21C58.0446 159.1 58.3546 158.995 58.6546 158.895C58.9646 158.795 59.2746 158.695 59.5846 158.595V163.995C59.5846 164.785 60.0246 165.18 60.9046 165.18C61.8146 165.18 62.5396 164.925 63.0796 164.415V160.065C63.0796 159.935 63.0296 159.84 62.9296 159.78C62.7696 159.59 62.5196 159.495 62.1796 159.495C62.1696 159.445 62.1646 159.395 62.1646 159.345C62.1646 159.295 62.1596 159.245 62.1496 159.195C62.7496 158.975 63.3646 158.77 63.9946 158.58V164.355C63.9946 164.465 64.0096 164.555 64.0396 164.625C64.0596 164.685 64.0796 164.74 64.0996 164.79C64.1196 164.83 64.1396 164.865 64.1596 164.895C64.3096 165.065 64.5696 165.15 64.9396 165.15V165.57ZM71.3718 163.92C71.3718 164.33 71.2568 164.695 71.0268 165.015C70.9768 165.065 70.9268 165.115 70.8768 165.165C70.8368 165.215 70.7918 165.265 70.7418 165.315C70.2918 165.705 69.6818 165.9 68.9118 165.9C68.3818 165.9 67.9218 165.815 67.5318 165.645C67.4818 165.625 67.4318 165.61 67.3818 165.6C67.3418 165.6 67.2968 165.6 67.2468 165.6H67.0968C66.9868 165.65 66.8818 165.69 66.7818 165.72C66.6818 165.76 66.5768 165.8 66.4668 165.84C66.3268 165.46 66.1818 165.09 66.0318 164.73C65.8818 164.36 65.7368 163.985 65.5968 163.605C65.6368 163.575 65.6718 163.545 65.7018 163.515C65.7418 163.485 65.7868 163.46 65.8368 163.44C66.2668 164.04 66.6768 164.48 67.0668 164.76C67.6868 165.16 68.2968 165.36 68.8968 165.36C69.3668 165.36 69.7618 165.215 70.0818 164.925C70.3418 164.665 70.4718 164.35 70.4718 163.98C70.4718 163.74 70.3768 163.525 70.1868 163.335C70.1468 163.305 70.0968 163.27 70.0368 163.23C69.9768 163.19 69.9068 163.145 69.8268 163.095C69.6968 163.015 69.5268 162.935 69.3168 162.855C69.1068 162.765 68.8518 162.67 68.5518 162.57C68.0818 162.41 67.6918 162.265 67.3818 162.135C67.0718 161.995 66.8368 161.86 66.6768 161.73C66.0768 161.36 65.7768 160.87 65.7768 160.26C65.7768 159.7 66.0418 159.255 66.5718 158.925C66.9718 158.675 67.4718 158.55 68.0718 158.55C68.5918 158.55 69.1268 158.65 69.6768 158.85C69.7568 158.83 69.8418 158.795 69.9318 158.745C70.0218 158.685 70.1218 158.615 70.2318 158.535C70.3718 158.895 70.5118 159.26 70.6518 159.63C70.7918 159.99 70.9318 160.355 71.0718 160.725C71.0218 160.745 70.9718 160.77 70.9218 160.8C70.8818 160.83 70.8368 160.855 70.7868 160.875C70.5368 160.395 70.2018 160.005 69.7818 159.705C69.1618 159.295 68.5918 159.09 68.0718 159.09C67.6918 159.09 67.3918 159.155 67.1718 159.285C66.8418 159.465 66.6768 159.775 66.6768 160.215C66.6768 160.495 66.8218 160.735 67.1118 160.935C67.1518 160.955 67.1918 160.975 67.2318 160.995C67.2718 161.015 67.3168 161.035 67.3668 161.055C67.5068 161.135 67.6818 161.22 67.8918 161.31C68.1018 161.4 68.3368 161.485 68.5968 161.565C69.1368 161.735 69.5818 161.905 69.9318 162.075C70.2918 162.235 70.5668 162.385 70.7568 162.525C71.1668 162.855 71.3718 163.32 71.3718 163.92Z" fill="white"/>
</g>
<defs>
<clipPath id="clip0_352_7">
<rect width="47.79" height="56.38" fill="white" transform="translate(26 20)"/>
</clipPath>
</defs>
</svg>
